<svg xmlns="http://www.w3.org/2000/svg" width="33" height="38" fill="none"><g clip-path="url(#a)"><path fill="#FDC305" d="M6.012 20.935V18.65a139.135 139.135 0 0 1 19.976-1.343c0 .606 0 1.222-.06 1.838 1.9-.86 3.896-1.477 5.943-1.838a16.767 16.767 0 0 0-6.767-8.285 16.248 16.248 0 0 0-10.306-2.398c-3.6.374-6.98 1.945-9.62 4.47A16.948 16.948 0 0 0 .188 20.6l5.824.334Zm20.966 3.546c-1.149 1.293-1.376 1.213-1.376 3.486v9.275a16.692 16.692 0 0 0 5.425-6.052A17.08 17.08 0 0 0 33 23.237c-.013-1.051-.12-2.1-.317-3.132a32.856 32.856 0 0 0-5.705 4.375ZM6.299 25.987s-3.754-1.455-5.14-1.85A8.33 8.33 0 0 0 0 23.856a17.066 17.066 0 0 0 2.463 8.233A16.633 16.633 0 0 0 8.598 38L6.299 25.987Z"/><path fill="#F06351" d="M26.038 17.297A92.52 92.52 0 0 0 24.65.657s-.139-1.304-.881-.243a14.583 14.583 0 0 0-1.189 3.981 68.295 68.295 0 0 0-12.647.344C9.15 2.02 7.774.758 7.11 1.01c-.664.253-.713 3.345-.713 3.345L6.071 18.6a139.094 139.094 0 0 1 19.967-1.303Z"/><path fill="#000" d="M12.29 14.145c0-.09.991.687 1.397.93.406.242.604.424.604.596s-.267.343-.623.343c-.357 0-.902-.12-.99-.272h1.217a8.34 8.34 0 0 1-1.604-1.597Zm7.409.111-1.08 1.344c0 .06-.168.354.179.303.41-.062.814-.16 1.208-.293.109 0 .07-.192-.109-.172-.178.02-.683.051-.99.112l.832-1.274s.069-.13-.04-.02ZM16.59 20.41a2.306 2.306 0 0 0 1.079-1.01c.277-.658 0-.92-.436-1.011a2.367 2.367 0 0 0-1.723.343c-.387.364-.337.728-.05 1.01.348.27.727.494 1.13.668Z"/><path fill="#F06351" d="M16.193 21.672a1.944 1.944 0 0 1-.456.607 1.693 1.693 0 0 1-.99.384 2.1 2.1 0 0 1-1.456-.435 2.289 2.289 0 0 1-.525-.444 1.059 1.059 0 0 0-.356-.263s.742 4.142 2.545 4.8c1.803.656 2.12-.759 2.179-1.143a5.758 5.758 0 0 0-.812-3.263c-.02-.313-.03-.111-.129-.243Z"/><path fill="#000" d="M14.569 22.824a3.364 3.364 0 0 1-1.3-.474 3.437 3.437 0 0 1-1.039-1.007.145.145 0 0 1 .076-.187.136.136 0 0 1 .153.031 3.22 3.22 0 0 0 2.09 1.314c.328-.025.646-.13.927-.306.28-.176.516-.417.687-.704l.139-.192.099.212s.366.768.99.808c.624.04 1.04-.414 1.595-1.293a.138.138 0 0 1 .198 0c.032.02.055.053.064.09a.154.154 0 0 1-.015.112c-.633 1.01-1.257 1.455-1.861 1.414a1.518 1.518 0 0 1-.642-.253 1.555 1.555 0 0 1-.468-.514 2.255 2.255 0 0 1-.74.67c-.294.165-.62.26-.953.28Z"/><path fill="#F06351" d="M25.988 19.116a58.7 58.7 0 0 0-5.021 5.244 31.579 31.579 0 0 1-5.24 4.94c-.217-.535-1.604-1.525-1.604-1.525s-3.1-2.162-5.13-3.86a34.1 34.1 0 0 1-3.1-3.03l-1.98-.112c2.861 4.25 7.05 7.384 11.884 8.892.852-.142 3.238-1.88 5.021-3.294a58.146 58.146 0 0 0 5.883-5.951 6.286 6.286 0 0 0 1.13-2.021c-1.09.394-1.843.717-1.843.717Z"/></g><defs><clipPath id="a"><path fill="#fff" d="M0 0h33v38H0z"/></clipPath></defs></svg>