<svg width="200" height="211" fill="none" xmlns="http://www.w3.org/2000/svg"><circle cx="100" cy="111" r="100" fill="#68B738"/><g clip-path="url(#a)"><path d="M139.68 0h-.76A7 7 0 0 0 136 3.18a31.04 31.04 0 0 0-2.58 6.82 3.257 3.257 0 0 1-2.96 2.68A14.675 14.675 0 0 0 120 20.24a54.62 54.62 0 0 0-3.7 8c-2.84 7.36-5.02 14.96-7.7 22.38-1.26 3.38-1.32 3.38-5.12 3.38-4.54 0-4.22-.7-4.28 4.3 0 1.58.48 2.38 2.16 2.3.52 0 1.3-.26 1.5.42.2.68-.48.98-.88 1.38a18 18 0 0 1-8.66 4.88c-3.8 1.02-7.68 1.82-11.38 3.06-9.5 3.18-18.28 7.62-25.12 15.14a56 56 0 0 0-9.48 15.68c-7.34 17.28-10.9 35.48-13.66 53.86-1.3 8.62-2.22 17.28-2.92 26-.36 4.28-.76 8.62-.76 12.98h66.66c.11-.88-.05-1.773-.46-2.56a10.002 10.002 0 0 0-7.66-6.14c-1.4-.32-1.56-.74-.7-1.84a20.692 20.692 0 0 0 3.18-6.2c3.26-9.62 4.52-19.66 6.1-29.6A60.008 60.008 0 0 1 104 126a43.215 43.215 0 0 1 11.18-12.74c1.66-1.26 1.72-1.26 2 .88.2 1.42.24 2.88.34 4.32.6 9.449.48 18.93-.36 28.36a123.318 123.318 0 0 0-.3 22A150.344 150.344 0 0 0 121.4 194H148a10.817 10.817 0 0 0-8.48-8.88 18.007 18.007 0 0 0-7.52.4c-1.2.28-1.7 0-1.8-1.3a112.726 112.726 0 0 1 2-31.64 355.46 355.46 0 0 0 6.12-36.36 35.499 35.499 0 0 1 4.56-14c2.38-4.24 4.46-8.64 6.8-12.9a11.745 11.745 0 0 0 .84-10.38c-.54-1.42-1.06-2.86-1.72-4.22-2-3.9-4-7.76-5.84-11.7-.98-2-.76-2.24 1.42-2.3 3.26 0 3.26 0 3.32-3.28v-1.32c0-1.38-.52-2.14-2-2h-3.04c-1.38 0-1.78-.58-1.44-2a12.483 12.483 0 0 1 10.26-8.86 43.999 43.999 0 0 1 13.24.86 1.999 1.999 0 0 0 2.5-1.28c.8-2 1.68-4 2.58-6a1.997 1.997 0 0 0-.2-2.28c-6.4-8.12-13.34-15.7-22.8-20.56a2.977 2.977 0 0 1-1.76-2.24 39.163 39.163 0 0 0-2.54-8.32A7 7 0 0 0 139.68 0Z" fill="#000"/></g><defs><clipPath id="a"><path fill="#fff" transform="translate(30)" d="M0 0h140v194H0z"/></clipPath></defs></svg>